# xmcd
#
# Track frame offsets:
#	182
#	20667
#	39672
#	52980
#	69952
#	99680
#	113572
#	140732
#	156102
#	176877
#	194672
#	221285
#	232815
#	253555
#	283017
#
# Disc length: 4040 seconds
#
# Revision: 4
# Processed by: cddbd v1.5.1PL2 Copyright (c) Steve Scherf et al.
# Submitted via: audiograbber 1.83.01
#
DISCID=d60fc60f
DTITLE=Muddy Waters - Live Recordings Vol 2
DYEAR=1900
DGENRE=Blues
TTITLE0=Wee Wee Baby
TTITLE1=Stting And Thinking
TTITLE2=Clouds My Heart
TTITLE3=She's Nineteen Years Old
TTITLE4=Long Distance Call
TTITLE5=Baby Please Don't Go
TTITLE6=The Same Thing
TTITLE7=Got My Mojo Working - Part 1
TTITLE8=Got My Mojo Working - Part 2
TTITLE9=Honey Bee
TTITLE10=Country Jail
TTITLE11=Trouble No More
TTITLE12=Got My Mojo Working
TTITLE13=They Call It Stormy Monday
TTITLE14=She Says She Loves Me
EXTD=
EXTT0=
EXTT1=
EXTT2=
EXTT3=
EXTT4=
EXTT5=
EXTT6=
EXTT7=
EXTT8=
EXTT9=
EXTT10=
EXTT11=
EXTT12=
EXTT13=
EXTT14=
PLAYORDER=
